<svg width="1200" height="760" viewBox="0 0 1200 760" fill="none" xmlns="http://www.w3.org/2000/svg" role="img" aria-labelledby="title desc">
  <title id="title">Conviction meter at 42 percent</title>
  <desc id="desc">A dark terminal style screenshot showing partial persuasion, some resolved objections, and a still rejected verdict.</desc>
  <rect width="1200" height="760" rx="24" fill="#0B1020"/>
  <rect x="32" y="32" width="1136" height="696" rx="20" fill="#111827" stroke="#374151"/>
  <circle cx="72" cy="70" r="8" fill="#EF4444"/>
  <circle cx="100" cy="70" r="8" fill="#F59E0B"/>
  <circle cx="128" cy="70" r="8" fill="#10B981"/>
  <text x="160" y="77" fill="#9CA3AF" font-family="ui-monospace, SFMono-Regular, Menlo, monospace" font-size="24">convince-me / ai support draft pilot</text>

  <text x="72" y="145" fill="#E5E7EB" font-family="ui-sans-serif, -apple-system, BlinkMacSystemFont, Segoe UI, sans-serif" font-size="40" font-weight="700">Current Conviction</text>
  <text x="72" y="188" fill="#93C5FD" font-family="ui-monospace, SFMono-Regular, Menlo, monospace" font-size="24">Humans approve drafts, PII is redacted, quality metrics still weak</text>

  <rect x="72" y="225" width="1056" height="88" rx="18" fill="#0F172A" stroke="#334155"/>
  <rect x="88" y="241" width="72" height="56" rx="10" fill="#22C55E"/>
  <rect x="172" y="241" width="72" height="56" rx="10" fill="#22C55E"/>
  <rect x="256" y="241" width="72" height="56" rx="10" fill="#22C55E"/>
  <rect x="340" y="241" width="72" height="56" rx="10" fill="#22C55E"/>
  <rect x="424" y="241" width="72" height="56" rx="10" fill="#F59E0B"/>
  <rect x="508" y="241" width="72" height="56" rx="10" fill="#1F2937"/>
  <rect x="592" y="241" width="72" height="56" rx="10" fill="#1F2937"/>
  <rect x="676" y="241" width="72" height="56" rx="10" fill="#1F2937"/>
  <rect x="760" y="241" width="72" height="56" rx="10" fill="#1F2937"/>
  <rect x="844" y="241" width="72" height="56" rx="10" fill="#1F2937"/>
  <rect x="928" y="241" width="72" height="56" rx="10" fill="#1F2937"/>
  <rect x="1012" y="241" width="72" height="56" rx="10" fill="#1F2937"/>
  <text x="72" y="365" fill="#FBBF24" font-family="ui-monospace, SFMono-Regular, Menlo, monospace" font-size="72" font-weight="700">42%</text>

  <text x="72" y="438" fill="#E5E7EB" font-family="ui-sans-serif, -apple-system, BlinkMacSystemFont, Segoe UI, sans-serif" font-size="30" font-weight="700">Outstanding Objections</text>
  <text x="72" y="485" fill="#10B981" font-family="ui-monospace, SFMono-Regular, Menlo, monospace" font-size="28">✓ Security</text>
  <text x="72" y="528" fill="#10B981" font-family="ui-monospace, SFMono-Regular, Menlo, monospace" font-size="28">✓ Human review</text>
  <text x="72" y="571" fill="#F87171" font-family="ui-monospace, SFMono-Regular, Menlo, monospace" font-size="28">✗ Quality metrics</text>
  <text x="72" y="614" fill="#F87171" font-family="ui-monospace, SFMono-Regular, Menlo, monospace" font-size="28">✗ Escalation path</text>
  <text x="72" y="657" fill="#F87171" font-family="ui-monospace, SFMono-Regular, Menlo, monospace" font-size="28">✗ Retention policy</text>

  <rect x="736" y="404" width="392" height="260" rx="18" fill="#0F172A" stroke="#334155"/>
  <text x="768" y="452" fill="#FDE68A" font-family="ui-sans-serif, -apple-system, BlinkMacSystemFont, Segoe UI, sans-serif" font-size="30" font-weight="700">Verdict</text>
  <text x="768" y="502" fill="#FBBF24" font-family="ui-sans-serif, -apple-system, BlinkMacSystemFont, Segoe UI, sans-serif" font-size="46" font-weight="800">Rejected</text>
  <text x="768" y="556" fill="#CBD5E1" font-family="ui-monospace, SFMono-Regular, Menlo, monospace" font-size="22">- Some risk controls are credible</text>
  <text x="768" y="590" fill="#CBD5E1" font-family="ui-monospace, SFMono-Regular, Menlo, monospace" font-size="22">- Missing proof that drafts help more than harm</text>
  <text x="768" y="624" fill="#CBD5E1" font-family="ui-monospace, SFMono-Regular, Menlo, monospace" font-size="22">- Approval path exists, confidence does not</text>
</svg>
